Coordinates
version=1
nRows=13
nColumns=63
inDegrees=yes

Units are S.I. units (second, meters, Newtons, ...)
If the header above contains a line with 'inDegrees', this indicates whether rotational values are in degrees (yes) or radians (no).

endheader
time	pelvis_tilt	pelvis_list	pelvis_rotation	pelvis_tx	pelvis_ty	pelvis_tz	hip_flexion_r	hip_adduction_r	hip_rotation_r	knee_angle_r	knee_angle_r_beta	ankle_angle_r	subtalar_angle_r	mtp_angle_r	hip_flexion_l	hip_adduction_l	hip_rotation_l	knee_angle_l	knee_angle_l_beta	ankle_angle_l	subtalar_angle_l	mtp_angle_l	L5_S1_Flex_Ext	L5_S1_Lat_Bending	L5_S1_axial_rotation	L4_L5_Flex_Ext	L4_L5_Lat_Bending	L4_L5_axial_rotation	L3_L4_Flex_Ext	L3_L4_Lat_Bending	L3_L4_axial_rotation	L2_L3_Flex_Ext	L2_L3_Lat_Bending	L2_L3_axial_rotation	L1_L2_Flex_Ext	L1_L2_Lat_Bending	L1_L2_axial_rotation	L1_T12_Flex_Ext	L1_T12_Lat_Bending	L1_T12_axial_rotation	Abs_r3	Abs_r2	Abs_r1	Abs_t1	Abs_t2	neck_flexion	neck_bending	neck_rotation	arm_flex_r	arm_add_r	arm_rot_r	elbow_flex_r	pro_sup_r	wrist_flex_r	wrist_dev_r	arm_flex_l	arm_add_l	arm_rot_l	elbow_flex_l	pro_sup_l	wrist_flex_l	wrist_dev_l
0.000000	-2.399360	-3.988266	104.075191	0.197069	0.837326	0.509219	-10.300263	-3.046909	-13.663640	0.208608	0.003641	32.321105	-1.445144	0.000000	-7.867278	-2.535543	22.883353	1.025411	0.017897	29.798984	-15.798999	0.000000	0.071294	-0.021829	-2.133795	0.132400	-0.029033	-2.267158	0.117129	-0.053075	-2.267158	0.081482	-0.053075	-1.867071	0.066204	-0.044514	-1.733709	0.040737	-0.033813	-1.600347	0.509245	-0.246935	-11.867530	0.000000	0.000000	8.789612	1.177172	4.841380	14.929727	-22.258330	59.316639	100.160907	81.846312	-14.944834	3.557393	13.012723	-17.287215	47.774165	94.463049	48.285194	7.482768	26.918899
0.016667	-2.421389	-4.039066	104.613715	0.196358	0.836969	0.510183	-10.359650	-3.015162	-13.916425	0.205459	0.003586	32.181838	-1.183576	0.000000	-7.730380	-2.649102	23.317881	0.944923	0.016492	30.565686	-14.707998	0.000000	0.071610	-0.023306	-2.270434	0.132987	-0.030997	-2.412336	0.117648	-0.056667	-2.412336	0.081843	-0.056667	-1.986630	0.066497	-0.047526	-1.844727	0.040918	-0.036101	-1.702825	0.511503	-0.263645	-12.627471	0.000000	0.000000	8.784838	0.888114	4.650707	14.397715	-22.197869	57.868619	101.261865	83.623300	-13.894224	5.381978	12.909543	-17.812814	47.536185	95.943103	49.941922	9.038477	26.733365
0.033333	-2.401880	-4.076946	104.996199	0.195823	0.836675	0.511032	-10.379664	-2.964598	-14.103091	0.207843	0.003628	32.102180	-0.965458	0.000000	-7.621059	-2.774373	23.540612	0.885608	0.015457	31.241925	-13.676575	0.000000	0.072247	-0.016577	-2.391314	0.134170	-0.022047	-2.540771	0.118695	-0.040305	-2.540771	0.082571	-0.040305	-2.092400	0.067089	-0.033804	-1.942943	0.041282	-0.025678	-1.793485	0.516053	-0.187521	-13.299771	0.000000	0.000000	8.823338	0.653281	4.706503	14.130753	-22.148305	56.862097	102.208552	84.184952	-13.054491	6.929274	12.679067	-18.209664	47.125305	97.249077	51.583720	10.317095	26.575694
0.050000	-2.345560	-4.102209	105.237561	0.195448	0.836441	0.511769	-10.366046	-2.897298	-14.229897	0.214894	0.003751	32.074725	-0.787292	0.000000	-7.538635	-2.909546	23.576889	0.845148	0.014751	31.831379	-12.710634	0.000000	0.073105	-0.002633	-2.496998	0.135764	-0.003502	-2.653060	0.120104	-0.006402	-2.653060	0.083552	-0.006402	-2.184873	0.067885	-0.005369	-2.028811	0.041772	-0.004079	-1.872748	0.522183	-0.029785	-13.887552	0.000000	0.000000	8.898669	0.467141	4.976446	14.096992	-22.110260	56.250265	103.013760	83.673805	-12.406053	8.223127	12.340282	-18.490018	46.567058	98.392024	53.216357	11.349571	26.439320
0.066667	-2.257157	-4.115159	105.352716	0.195216	0.836262	0.512398	-10.324536	-2.815342	-14.303099	0.225747	0.003940	32.092067	-0.645581	0.000000	-7.482429	-3.052811	23.452051	0.821222	0.014333	32.337724	-11.816078	0.000000	0.074085	0.017533	-2.588046	0.137583	0.023319	-2.749799	0.121714	0.042631	-2.749799	0.084671	0.042631	-2.264540	0.068795	0.035754	-2.102788	0.042332	0.027159	-1.941035	0.529180	0.198341	-14.393937	0.000000	0.000000	9.004389	0.324160	5.428215	14.264582	-22.084357	55.986316	103.690278	82.232396	-11.929327	9.287384	11.912176	-18.666129	45.886980	99.382999	54.845602	12.166854	26.317675
0.083333	-2.141397	-4.116099	105.356580	0.195111	0.836134	0.512922	-10.260876	-2.720812	-14.328955	0.239537	0.004181	32.146801	-0.536829	0.000000	-7.451761	-3.202361	23.191438	0.811514	0.014164	32.764638	-10.998807	0.000000	0.075086	0.042930	-2.665021	0.139443	0.057097	-2.831585	0.123359	0.104380	-2.831585	0.085816	0.104380	-2.331894	0.069725	0.087543	-2.165330	0.042904	0.066499	-1.998766	0.536333	0.485633	-14.822049	0.000000	0.000000	9.134056	0.218805	6.029488	14.601675	-22.071215	56.023440	104.250898	80.003262	-11.604731	10.145889	11.413735	-18.750249	45.110605	100.233055	56.477225	12.799894	26.204193
0.100000	-2.003009	-4.105334	105.264070	0.195117	0.836053	0.513344	-10.180805	-2.615790	-14.313721	0.255400	0.004458	32.231520	-0.457539	0.000000	-7.445954	-3.356386	22.820390	0.813703	0.014202	33.115797	-10.264724	0.000000	0.076010	0.072565	-2.728484	0.141158	0.096511	-2.899015	0.124877	0.176435	-2.899015	0.086872	0.176435	-2.387424	0.070583	0.147975	-2.216894	0.043432	0.112403	-2.046363	0.542931	0.820870	-15.175012	0.000000	0.000000	9.281228	0.145542	6.747946	15.076422	-22.071458	56.314831	104.708410	77.128940	-11.412681	10.822489	10.863947	-18.754630	44.263466	100.953247	58.116994	13.279638	26.092309
0.116667	-1.846718	-4.083166	105.090101	0.195217	0.836015	0.513667	-10.090064	-2.502355	-14.263655	0.272470	0.004755	32.338820	-0.404215	0.000000	-7.464327	-3.513076	22.364248	0.825472	0.014407	33.394879	-9.619733	0.000000	0.076756	0.105446	-2.778997	0.142543	0.140244	-2.952684	0.126102	0.256382	-2.952684	0.087724	0.256382	-2.431622	0.071276	0.215026	-2.257935	0.043858	0.163336	-2.084248	0.548260	1.192829	-15.455948	0.000000	0.000000	9.439463	0.098838	7.551266	15.656974	-22.085705	56.813679	105.075606	73.751966	-11.333597	11.341029	10.281799	-18.691525	43.371099	101.554627	59.770680	13.637038	25.975456
0.133333	-1.677253	-4.049901	104.849589	0.195396	0.836015	0.513893	-9.994394	-2.382589	-14.185015	0.289882	0.005059	32.461295	-0.373359	0.000000	-7.506202	-3.670623	21.848352	0.844502	0.014739	33.605561	-9.069734	0.000000	0.077225	0.140582	-2.817121	0.143414	0.186974	-2.993191	0.126872	0.341810	-2.993191	0.088260	0.341810	-2.464981	0.071711	0.286674	-2.288911	0.044126	0.217761	-2.112841	0.551608	1.590288	-15.667980	0.000000	0.000000	9.602318	0.073161	8.407127	16.311482	-22.114580	57.473177	105.365276	70.014878	-11.347894	11.725355	9.686278	-18.573187	42.459039	102.048251	61.444050	13.903041	25.847066
0.150000	-1.499340	-4.005842	104.557451	0.195637	0.836049	0.514027	-9.899535	-2.258573	-14.084058	0.306771	0.005354	32.591540	-0.361474	0.000000	-7.570898	-3.827217	21.298042	0.868475	0.015158	33.751519	-8.620630	0.000000	0.077317	0.176979	-2.843417	0.143585	0.235382	-3.021131	0.127024	0.430307	-3.021131	0.088365	0.430307	-2.487990	0.071796	0.360896	-2.310276	0.044179	0.274141	-2.132563	0.552265	2.002024	-15.814232	0.000000	0.000000	9.763352	0.062976	9.283209	17.008097	-22.158703	58.246516	105.590212	66.060212	-11.435990	11.999314	9.096370	-18.411868	41.552818	102.445171	63.142876	14.108597	25.700575
0.166667	-1.317706	-3.951292	104.228603	0.195923	0.836113	0.514072	-9.811228	-2.132389	-13.967040	0.322272	0.005625	32.722148	-0.365064	0.000000	-7.657739	-3.981050	20.738658	0.895071	0.015622	33.836432	-8.278324	0.000000	0.076932	0.213647	-2.858447	0.142870	0.284150	-3.037100	0.126392	0.519461	-3.037100	0.087926	0.519461	-2.501141	0.071439	0.435668	-2.322488	0.043959	0.330939	-2.143836	0.549518	2.416814	-15.897827	0.000000	0.000000	9.916122	0.062751	10.147189	17.714971	-22.218696	59.086888	105.763203	62.030505	-11.578303	12.186751	8.531064	-18.219821	40.677973	102.756443	64.872924	14.284654	25.529415
0.183333	-1.136679	-3.901588	103.905416	0.196238	0.836165	0.514021	-9.736415	-1.999489	-13.900502	0.329357	0.005748	32.796470	-0.324624	0.000000	-7.761443	-4.135630	20.170507	0.909680	0.015877	33.821858	-8.034731	0.000000	0.077256	0.248224	-2.867745	0.143472	0.330138	-3.046979	0.126923	0.603531	-3.046979	0.088296	0.603531	-2.509276	0.071740	0.506178	-2.330042	0.044144	0.384499	-2.150808	0.551830	2.807957	-15.949535	0.000000	0.000000	10.040283	0.053118	10.937380	18.352111	-22.271763	59.884828	105.923385	58.131282	-11.757944	12.454290	7.970053	-17.994056	39.691217	103.032593	67.242740	14.714480	25.179432
0.200000	-0.960694	-3.827385	103.595904	0.196543	0.836250	0.513918	-9.695384	-1.861671	-13.855313	0.334182	0.005833	32.870470	-0.271939	0.000000	-7.898629	-4.290942	19.795815	0.918296	0.016027	33.737073	-8.081146	0.000000	0.075225	0.280651	-2.863688	0.139701	0.373266	-3.042669	0.123587	0.682376	-3.042669	0.085975	0.682376	-2.505727	0.069854	0.572304	-2.326747	0.042984	0.434729	-2.147766	0.537326	3.174784	-15.926974	0.000000	0.000000	10.141832	0.046327	11.570512	18.881435	-22.376819	60.597580	106.070307	54.807067	-11.865993	12.663678	7.567439	-17.806591	38.986712	103.233789	69.424394	15.134318	24.824159
